<?xml version="1.0" encoding="UTF-8" standalone="no" ?>
<!DOCTYPE svg PUBLIC "-//W3C//DTD SVG 1.1//EN" "http://www.w3.org/Graphics/SVG/1.1/DTD/svg11.dtd">
<svg xmlns="http://www.w3.org/2000/svg" xmlns:xlink="http://www.w3.org/1999/xlink" version="1.1" width="1080" height="1080" viewBox="0 0 1080 1080" xml:space="preserve">
<desc>Created with Fabric.js 5.2.4</desc>
<defs>
</defs>
<g transform="matrix(1 0 0 1 540 540)" id="da69655a-be77-4f23-bfc9-dc21a6bfc952"  >
<rect style="stroke: none; stroke-width: 1; stroke-dasharray: none; stroke-linecap: butt; stroke-dashoffset: 0; stroke-linejoin: miter; stroke-miterlimit: 4; fill: rgb(255,255,255); fill-rule: nonzero; opacity: 1; visibility: hidden;" vector-effect="non-scaling-stroke"  x="-540" y="-540" rx="0" ry="0" width="1080" height="1080" />
</g>
<g transform="matrix(1 0 0 1 540 540)" id="848e6a7c-758d-4f9e-b2e7-836065bccef0"  >
</g>
<g transform="matrix(24.91 0 0 24.91 502.89 519.38)"  >
<g style="" vector-effect="non-scaling-stroke"   >
		<g transform="matrix(1 0 0 1 0 0)"  >
<path style="stroke: none; stroke-width: 1; stroke-dasharray: none; stroke-linecap: butt; stroke-dashoffset: 0; stroke-linejoin: miter; stroke-miterlimit: 4; fill: rgb(255,255,255); fill-rule: nonzero; opacity: 1;" vector-effect="non-scaling-stroke"  transform=" translate(-19.95, -20)" d="M 31.5294 14.2118 C 31.5294 18.8819 28.7623 22.9082 24.7793 24.7351 C 26.4612 23.3496 27.5322 21.248 27.5322 18.896 C 27.5322 14.7642 24.2259 11.4042 20.112 11.3205 C 20.0574 11.3167 20.0075 11.3167 19.9529 11.3167 C 19.8983 11.3167 19.8485 11.3167 19.7939 11.3205 C 18.2673 11.4033 17.0588 12.6663 17.0588 14.2108 L 17.0588 28.6814 C 17.0588 33.4748 13.1699 37.3638 8.37646 37.3638 L 8.37646 14.2118 C 8.37646 7.81928 13.5605 2.63528 19.9529 2.63528 C 26.3454 2.63528 31.5294 7.81928 31.5294 14.2118 Z" stroke-linecap="round" />
</g>
		<g transform="matrix(1 0 0 1 0 -5.79)"  >
<path style="stroke: none; stroke-width: 1; stroke-dasharray: none; stroke-linecap: butt; stroke-dashoffset: 0; stroke-linejoin: miter; stroke-miterlimit: 4; fill: rgb(255,255,255); fill-rule: nonzero; opacity: 1;" vector-effect="non-scaling-stroke"  transform=" translate(-19.95, -14.21)" d="M 21.9992 16.2582 C 23.1294 15.128 23.1294 13.2956 21.9992 12.1654 C 20.8689 11.0351 19.0365 11.0351 17.9063 12.1654 C 16.7761 13.2956 16.7761 15.128 17.9063 16.2582 C 19.0365 17.3884 20.8689 17.3884 21.9992 16.2582 Z" stroke-linecap="round" />
</g>
</g>
</g>
</svg>