<svg height="32" viewBox="0 0 32 32" width="32" xmlns="http://www.w3.org/2000/svg"><path d="m28.625 9.099c1.12 2.052 1.755 4.401 1.755 6.901 0 5.307-2.87 9.943-7.146 12.432l4.391-12.703c.823-2.052 1.094-3.693 1.094-5.151 0-.542-.036-1.042-.094-1.479zm-10.641.141c.865-.042 1.641-.141 1.641-.141.776-.099.688-1.24-.089-1.198 0 0-2.339.177-3.839.177-1.417 0-3.802-.198-3.802-.198-.776-.042-.88 1.141-.099 1.182 0 0 .719.078 1.5.12l2.24 6.135-3.161 9.443-5.234-15.563c.865-.036 1.646-.13 1.646-.13.776-.099.688-1.24-.089-1.198 0 0-2.328.187-3.833.187-.266 0-.583-.01-.917-.021 2.599-3.839 7.031-6.417 12.052-6.417 3.745 0 7.151 1.427 9.714 3.776-.063 0-.12-.01-.188-.01-1.411 0-2.417 1.229-2.417 2.552 0 1.188.688 2.193 1.417 3.375.547.958 1.182 2.193 1.182 3.969 0 1.219-.469 2.656-1.094 4.641l-1.432 4.776-5.198-15.479zm-1.984 21.14c-1.411 0-2.776-.203-4.063-.583l4.313-12.542 4.422 12.115c.031.073.068.135.104.198-1.495.526-3.099.813-4.776.813zm-14.385-14.38c0-2.083.448-4.068 1.245-5.854l6.859 18.802c-4.792-2.333-8.104-7.255-8.104-12.948zm14.385-16c-8.818 0-16 7.182-16 16s7.182 16 16 16 16-7.182 16-16-7.182-16-16-16z"/></svg>